<svg width="138" height="138" viewBox="0 0 138 138" fill="none" xmlns="http://www.w3.org/2000/svg">
<path opacity="0.2" d="M69 138C107.108 138 138 107.108 138 69C138 30.8924 107.108 0 69 0C30.8924 0 0 30.8924 0 69C0 107.108 30.8924 138 69 138Z" fill="#FF9000"/>
<path d="M9.64938 104.193C3.47182 93.7741 0.145473 81.9137 0.00466412 69.8019C-0.136145 57.6917 2.91355 45.7562 8.84721 35.1977C14.7809 24.6376 23.3895 15.8271 33.8077 9.64927C44.2258 3.47147 56.0866 0.145675 68.1979 0.00460815L69 69L9.64938 104.193Z" fill="#FF9000"/>
<path d="M69 105.8C89.3241 105.8 105.8 89.3241 105.8 69C105.8 48.6759 89.3241 32.2 69 32.2C48.6759 32.2 32.2 48.6759 32.2 69C32.2 89.3241 48.6759 105.8 69 105.8Z" fill="white"/>
<path d="M67.4667 0.0168691C67.9765 0.00613577 68.4876 0 69 0V67.7963L128.891 103.288C128.637 103.732 128.378 104.172 128.114 104.609L68.239 69.1273L9.93056 104.682C9.666 104.245 9.40613 103.805 9.15106 103.362L67.4667 67.8025V0.0168691Z" fill="white"/>
<path d="M73.4008 88.9333H69.2771V62.4082C69.2771 60.2017 69.3449 58.1149 69.4807 56.1461C69.1244 56.5033 68.7256 56.8759 68.2843 57.2669C67.843 57.6564 65.8236 59.3109 62.2258 62.2303L59.9857 59.3277L69.8371 51.7178H73.4008V88.9333Z" fill="#FF9000"/>
</svg>
