<svg width="138" height="138" viewBox="0 0 138 138" fill="none" xmlns="http://www.w3.org/2000/svg">
<path opacity="0.2" d="M69 138C107.108 138 138 107.108 138 69C138 30.8924 107.108 0 69 0C30.8924 0 0 30.8924 0 69C0 107.108 30.8924 138 69 138Z" fill="#FF9000"/>
<path d="M69 138C107.108 138 138 107.108 138 69C138 30.8924 107.108 0 69 0C30.8924 0 0 30.8924 0 69C0 107.108 30.8924 138 69 138Z" fill="#FF9000"/>
<path d="M69 105.8C89.3241 105.8 105.8 89.3241 105.8 69C105.8 48.6759 89.3241 32.2 69 32.2C48.6759 32.2 32.2 48.6759 32.2 69C32.2 89.3241 48.6759 105.8 69 105.8Z" fill="white"/>
<path d="M67.4667 0.0167011C67.9765 0.00558621 68.4876 0 69 0V67.7965L128.891 103.288C128.637 103.731 128.378 104.172 128.114 104.609L68.239 69.1279L9.93056 104.682C9.666 104.245 9.40613 103.805 9.15106 103.361L67.4667 67.8028V0.0167011Z" fill="white"/>
<path d="M80.8085 60.4739C80.8085 62.8497 80.1381 64.7928 78.7974 66.3032C77.4738 67.8135 75.5901 68.8234 73.1463 69.3324V69.5361C76.1331 69.9094 78.3478 70.8598 79.7902 72.3871C81.2328 73.9145 81.9539 75.917 81.9539 78.3947C81.9539 81.9415 80.7236 84.6737 78.2629 86.5915C75.8022 88.492 72.3062 89.4424 67.7752 89.4424C65.8065 89.4424 63.9992 89.2897 62.353 88.9842C60.7238 88.6958 59.1371 88.1782 57.5928 87.4314V83.4095C59.2051 84.207 60.919 84.818 62.735 85.2423C64.5678 85.6496 66.2987 85.8532 67.9279 85.8532C74.3596 85.8532 77.5756 83.3332 77.5756 78.2928C77.5756 73.7786 74.0287 71.5216 66.9351 71.5216H63.2695V67.8814H66.986C69.888 67.8814 72.1875 67.2451 73.8844 65.9723C75.5815 64.6824 76.4301 62.9006 76.4301 60.6266C76.4301 58.8107 75.8022 57.3852 74.5464 56.35C73.3074 55.3149 71.6189 54.7972 69.4807 54.7972C67.8515 54.7972 66.3156 55.0178 64.8732 55.459C63.4306 55.9003 61.7846 56.7149 59.9348 57.9028L57.7966 55.0517C59.3239 53.8468 61.0803 52.9051 63.0659 52.2261C65.0684 51.5304 67.1727 51.1825 69.3789 51.1825C72.9936 51.1825 75.8022 52.0141 77.8047 53.6771C79.8072 55.3233 80.8085 57.5888 80.8085 60.4739Z" fill="#FF9000"/>
</svg>
