<svg width="138" height="138" viewBox="0 0 138 138" fill="none" xmlns="http://www.w3.org/2000/svg">
<path opacity="0.2" d="M69 138C107.108 138 138 107.108 138 69C138 30.8924 107.108 0 69 0C30.8924 0 0 30.8924 0 69C0 107.108 30.8924 138 69 138Z" fill="#FF9000"/>
<path d="M128.686 103.62C122.621 114.075 113.917 122.756 103.443 128.789C92.9695 134.823 81.0946 137.998 69.0075 138C56.9202 138.002 45.0449 134.828 34.5699 128.795C24.0951 122.765 15.3884 114.088 9.32139 103.633C3.25445 93.1791 0.0401813 81.3142 0.00037429 69.2269C-0.0394326 57.1397 3.09661 45.2548 9.09457 34.7607C15.0925 24.2665 23.742 15.5327 34.1769 9.43198C44.6117 3.33177 56.4661 0.0797266 68.553 0.00137329L69 69L128.686 103.62Z" fill="#FF9000"/>
<path d="M69 105.8C89.3241 105.8 105.8 89.3241 105.8 69C105.8 48.6759 89.3241 32.2 69 32.2C48.6759 32.2 32.2 48.6759 32.2 69C32.2 89.3241 48.6759 105.8 69 105.8Z" fill="white"/>
<path d="M67.4667 0.016717C67.9765 0.00552369 68.4876 0 69 0V67.7963L128.891 103.288C128.637 103.732 128.378 104.172 128.114 104.609L68.239 69.1273L9.93056 104.682C9.666 104.245 9.40613 103.805 9.15106 103.362L67.4667 67.8025V0.016717Z" fill="white"/>
<path d="M82.2086 88.9333H57.7456V85.2932L67.5461 75.4416C70.5328 72.4209 72.5013 70.2665 73.4517 68.9755C74.4021 67.6859 75.1149 66.4301 75.5901 65.2081C76.0651 63.986 76.3028 62.6719 76.3028 61.2628C76.3028 59.2771 75.7003 57.707 74.4954 56.554C73.2905 55.3825 71.6189 54.7967 69.4807 54.7967C67.9363 54.7967 66.4684 55.0513 65.0768 55.5603C63.7021 56.0694 62.1664 56.9955 60.4693 58.3357L58.2292 55.4591C61.6573 52.6087 65.3908 51.1827 69.4298 51.1827C72.9256 51.1827 75.6664 52.0812 77.652 53.8813C79.6375 55.6631 80.6303 58.0643 80.6303 61.0849C80.6303 63.4432 79.9684 65.7769 78.6446 68.0846C77.3211 70.3938 74.8434 73.3117 71.2117 76.8415L63.0658 84.8102V85.0126H82.2086V88.9333Z" fill="#FF9000"/>
</svg>
