<svg width="138" height="138" viewBox="0 0 138 138" fill="none" xmlns="http://www.w3.org/2000/svg">
<path opacity="0.2" d="M69 138C107.108 138 138 107.108 138 69C138 30.8924 107.108 0 69 0C30.8924 0 0 30.8924 0 69C0 107.108 30.8924 138 69 138Z" fill="#FF9000"/>
<path d="M69 105.8C89.3241 105.8 105.8 89.3241 105.8 69C105.8 48.6759 89.3241 32.2 69 32.2C48.6759 32.2 32.2 48.6759 32.2 69C32.2 89.3241 48.6759 105.8 69 105.8Z" fill="white"/>
<path d="M67.4667 0.0168457C67.9765 0.00611237 68.4876 0 69 0V67.7963L128.891 103.288C128.637 103.732 128.378 104.172 128.114 104.609L68.239 69.1273L9.93056 104.682C9.666 104.245 9.40613 103.805 9.15106 103.362L67.4667 67.8025V0.0168457Z" fill="white"/>
<path d="M82.4122 70.2742C82.4122 76.7065 81.394 81.5089 79.3575 84.6829C77.338 87.8554 74.241 89.4424 70.0662 89.4424C66.0611 89.4424 63.015 87.8217 60.9276 84.5802C58.8402 81.3219 57.7966 76.5532 57.7966 70.2742C57.7966 63.7913 58.8063 58.9797 60.8257 55.8409C62.8452 52.7007 65.9254 51.132 70.0662 51.132C74.1051 51.132 77.1682 52.7697 79.2557 56.0449C81.3601 59.3201 82.4122 64.0627 82.4122 70.2742ZM62.073 70.2742C62.073 75.6884 62.7095 79.6337 63.9822 82.1115C65.255 84.5725 67.283 85.8023 70.0662 85.8023C72.8833 85.8023 74.9198 84.5557 76.1756 82.0609C77.4484 79.5493 78.0847 75.6194 78.0847 70.2742C78.0847 64.929 77.4484 61.0175 76.1756 58.5396C74.9198 56.0449 72.8833 54.7967 70.0662 54.7967C67.283 54.7967 65.255 56.028 63.9822 58.489C62.7095 60.9316 62.073 64.86 62.073 70.2742Z" fill="#FF9000"/>
</svg>
